<svg width="118" height="55" viewBox="0 0 118 55" fill="none" xmlns="http://www.w3.org/2000/svg">
<rect x="61" width="52.2" height="53.2826" rx="10" fill="#FF6C37"/>
<path d="M88 0H103C108.523 0 113 4.47715 113 10V31H88V0Z" fill="#DFFF14"/>
<path d="M61 10C61 4.47715 65.4772 0 71 0H88V31H61V10Z" fill="#264DE4"/>
<path d="M61 31H113V45C113 50.5228 108.523 55 103 55H71C65.4772 55 61 50.5228 61 45V31Z" fill="#FF6C37"/>
<path d="M83 8.127L81.3601 23.3109L73.989 25L66.6381 23.3133L65 8.127H83Z" fill="white"/>
<path d="M68.7553 15.0011L68.9573 16.8636H74V15.0011H68.7553Z" fill="#264DE4"/>
<path d="M74 11.2313H73.9922H68.3495L68.5543 13.0938H74V11.2313Z" fill="#264DE4"/>
<path d="M74 21.7761V19.8383L73.9901 19.8405L71.4805 19.2804L71.32 17.7949H70.1006H69.058L69.3737 20.7194L73.9896 21.7785L74 21.7761Z" fill="#264DE4"/>
<path d="M69.2362 4H71.9654V4.94336H70.3775V5.88672H71.9654V6.83008H69.2362V4Z" fill="white"/>
<path d="M72.5113 4H75.2405V4.82031H73.6526V4.98437H75.2405V6.87109H72.5113V6.00977H74.0992V5.8457H72.5113V4Z" fill="white"/>
<path d="M75.7864 4H78.5157V4.82031H76.9277V4.98438H78.5157V6.87109H75.7864V6.00977H77.3743V5.8457H75.7864V4Z" fill="white"/>
<path d="M76.767 16.8636L76.5055 19.2792L73.9922 19.8399V21.7776L78.6118 20.7194L78.6457 20.4047L79.1752 15.5012L79.2302 15.0011L79.637 11.2313H73.9922V13.0938H77.1675L76.9624 15.0011H73.9922V16.8636H76.767Z" fill="#264DE4"/>
<path d="M80.8695 32H81.9027V32.9352H82.8551V32H83.8883V34.8301H82.8551V33.8867H81.9117V34.8301H80.8695M85.2539 32.9434H84.342V32H87.2035V32.9434H86.2871V34.8301H85.2539M87.6572 32H88.7399L89.4047 32.9967L90.0695 32H91.1522V34.8301H90.119V33.4273L89.3957 34.4445L88.6725 33.4273V34.8301H87.6572M91.6643 32H92.6975V33.8949H94.1619V34.8301H91.6643" fill="white"/>
<path d="M80.8336 51.3184L79.3512 36.1262H95.6488L94.1664 51.3102L87.4865 53" fill="white"/>
<path d="M87.5 51.708V37.373H94.1619L92.8906 50.334" fill="white"/>
<path d="M82.3789 39.231H87.5V41.0932H84.616L84.8047 43.0004H87.5V44.8584H82.9359M83.0258 45.7935H85.0742L85.218 47.2824L87.5 47.8402V49.7844L83.3133 48.718" fill="#FF6C37"/>
<path d="M92.6031 39.231H87.491V41.0932H92.4144M92.2303 43.0004H87.491V44.8625H90.0066L89.7686 47.2824L87.491 47.8402V49.7762L91.6687 48.718" fill="#FF6C37"/>
<path d="M97.1307 11.8182H98.3636V19.0966C98.3636 19.7462 98.2443 20.2981 98.0057 20.7521C97.767 21.2062 97.4306 21.5509 96.9964 21.7862C96.5623 22.0215 96.0502 22.1392 95.4602 22.1392C94.9034 22.1392 94.4079 22.0381 93.9737 21.8359C93.5395 21.6304 93.1982 21.3388 92.9496 20.9609C92.701 20.5831 92.5767 20.134 92.5767 19.6136H93.7898C93.7898 19.902 93.861 20.1539 94.0036 20.3693C94.1494 20.5814 94.3482 20.7472 94.6001 20.8665C94.852 20.9858 95.1387 21.0455 95.4602 21.0455C95.8149 21.0455 96.1165 20.9709 96.3651 20.8217C96.6136 20.6726 96.8026 20.4538 96.9318 20.1655C97.0644 19.8738 97.1307 19.5175 97.1307 19.0966V11.8182ZM106.403 14.3636C106.343 13.8598 106.101 13.4688 105.677 13.1903C105.253 12.9119 104.732 12.7727 104.116 12.7727C103.665 12.7727 103.271 12.8456 102.933 12.9915C102.598 13.1373 102.336 13.3378 102.147 13.593C101.961 13.8482 101.869 14.1383 101.869 14.4631C101.869 14.7348 101.933 14.9685 102.062 15.1641C102.195 15.3563 102.364 15.517 102.57 15.6463C102.775 15.7723 102.991 15.8767 103.216 15.9595C103.441 16.0391 103.648 16.1037 103.837 16.1534L104.871 16.4318C105.137 16.5014 105.432 16.5975 105.756 16.7202C106.085 16.8428 106.398 17.0102 106.696 17.2223C106.998 17.4311 107.246 17.6996 107.442 18.0277C107.637 18.3558 107.735 18.7585 107.735 19.2358C107.735 19.786 107.591 20.2831 107.303 20.7273C107.018 21.1714 106.6 21.5244 106.05 21.7862C105.503 22.0481 104.838 22.179 104.056 22.179C103.327 22.179 102.696 22.0613 102.162 21.826C101.632 21.5907 101.214 21.2625 100.909 20.8416C100.607 20.4207 100.437 19.9318 100.397 19.375H101.67C101.703 19.7595 101.832 20.0777 102.058 20.3295C102.286 20.5781 102.575 20.7637 102.923 20.8864C103.274 21.0057 103.652 21.0653 104.056 21.0653C104.527 21.0653 104.949 20.9891 105.324 20.8366C105.698 20.6809 105.995 20.4654 106.214 20.1903C106.433 19.9119 106.542 19.5871 106.542 19.2159C106.542 18.8778 106.447 18.6027 106.259 18.3906C106.07 18.1785 105.821 18.0062 105.513 17.8736C105.205 17.741 104.871 17.625 104.513 17.5256L103.261 17.1676C102.465 16.9389 101.835 16.6125 101.371 16.1882C100.907 15.764 100.675 15.2088 100.675 14.5227C100.675 13.9527 100.83 13.4555 101.138 13.0312C101.449 12.6037 101.867 12.2723 102.391 12.0369C102.918 11.7983 103.506 11.679 104.156 11.679C104.812 11.679 105.395 11.7966 105.906 12.032C106.416 12.264 106.82 12.5821 107.119 12.9865C107.42 13.3909 107.579 13.8499 107.596 14.3636H106.403Z" fill="white"/>
</svg>
