<svg width="50" height="52" viewBox="0 0 50 52" fill="none" xmlns="http://www.w3.org/2000/svg">
<g clip-path="url(#clip0_1_2)">
<rect x="-16" y="-2" width="70" height="57" fill="#DC3E3E"/>
<path fill-rule="evenodd" clip-rule="evenodd" d="M44.9774 14.5015C44.9923 14.5575 44.9999 14.6152 45 14.6732V23.6884C45 23.8041 44.9701 23.9178 44.9132 24.0179C44.8563 24.118 44.7746 24.2011 44.6762 24.2586L37.2576 28.615V37.2498C37.2576 37.4848 37.1352 37.7017 36.9354 37.82L21.4498 46.9125C21.4144 46.933 21.3757 46.9461 21.3371 46.9601C21.3226 46.965 21.3089 46.9741 21.2936 46.9782C21.1853 47.0073 21.0715 47.0073 20.9633 46.9782C20.9455 46.9733 20.9294 46.9634 20.9125 46.9568C20.8771 46.9437 20.84 46.9322 20.8062 46.9125L5.32384 37.82C5.22549 37.7624 5.14376 37.6794 5.08691 37.5792C5.03005 37.4791 5.00008 37.3655 5 37.2498V10.2043C5 10.1451 5.00806 10.0876 5.02256 10.0317C5.02739 10.0128 5.03867 9.99555 5.04511 9.97665C5.0572 9.94214 5.06847 9.90681 5.0862 9.87477C5.09828 9.8534 5.116 9.83615 5.1305 9.81643C5.14903 9.79014 5.16595 9.76302 5.1877 9.74002C5.20623 9.72112 5.23039 9.70715 5.25134 9.69072C5.2747 9.671 5.29565 9.64963 5.32223 9.63402L13.0646 5.08781C13.1626 5.03028 13.2737 5 13.3868 5C13.4999 5 13.611 5.03028 13.7091 5.08781L21.4506 9.63402H21.4522C21.478 9.65045 21.4998 9.671 21.5231 9.68989C21.5441 9.70633 21.5674 9.72112 21.586 9.73919C21.6085 9.76302 21.6246 9.79014 21.644 9.81643C21.6577 9.83615 21.6762 9.8534 21.6875 9.87477C21.706 9.90763 21.7165 9.94214 21.7294 9.97665C21.7358 9.99555 21.7471 10.0128 21.7519 10.0325C21.7668 10.0885 21.7743 10.1462 21.7745 10.2043V27.0966L28.2255 23.308V14.6724C28.2255 14.6149 28.2336 14.5566 28.2481 14.5015C28.2537 14.4818 28.2642 14.4645 28.2706 14.4456C28.2835 14.4111 28.2948 14.3758 28.3125 14.3437C28.3246 14.3224 28.3423 14.3051 28.356 14.2854C28.3754 14.2591 28.3915 14.232 28.414 14.209C28.4326 14.1901 28.4559 14.1761 28.4769 14.1597C28.501 14.14 28.522 14.1186 28.5478 14.103L36.2909 9.55679C36.3889 9.49918 36.5001 9.46885 36.6132 9.46885C36.7263 9.46885 36.8374 9.49918 36.9354 9.55679L44.677 14.103C44.7044 14.1194 44.7253 14.14 44.7495 14.1589C44.7696 14.1753 44.793 14.1901 44.8115 14.2082C44.8341 14.232 44.8502 14.2591 44.8695 14.2854C44.884 14.3051 44.9017 14.3224 44.913 14.3437C44.9315 14.3758 44.942 14.4111 44.9549 14.4456C44.9621 14.4645 44.9726 14.4818 44.9774 14.5015ZM43.7095 23.308V15.8112L41.0003 17.4019L37.2576 19.5999V27.0966L43.7103 23.308H43.7095ZM35.9679 36.8694V29.3677L32.2864 31.5122L21.7737 37.6319V45.2042L35.9679 36.8694ZM6.29053 11.3422V36.8694L20.4831 45.2034V37.6327L13.0686 33.3527L13.0662 33.3511L13.063 33.3494C13.038 33.3346 13.0171 33.3133 12.9937 33.2952C12.9736 33.2788 12.9502 33.2656 12.9325 33.2475L12.9309 33.2451C12.9099 33.2245 12.8954 33.1991 12.8777 33.176C12.8616 33.1539 12.8423 33.135 12.8294 33.112L12.8286 33.1095C12.8141 33.0848 12.8052 33.0553 12.7947 33.0273C12.7843 33.0027 12.7706 32.9797 12.7641 32.9534C12.7561 32.9222 12.7545 32.8885 12.7512 32.8564C12.748 32.8318 12.7416 32.8071 12.7416 32.7825V32.7808V15.1309L8.99968 12.9321L6.29053 11.3422ZM13.3876 6.41725L6.93741 10.2043L13.386 13.9913L19.8355 10.2034L13.386 6.41725H13.3876ZM16.7421 30.0513L20.4839 27.8542V11.3422L17.7748 12.933L14.0321 15.1309V31.6428L16.7421 30.0513ZM36.6132 10.8862L30.1637 14.6732L36.6132 18.4602L43.0618 14.6724L36.6132 10.8862ZM35.9679 19.5999L32.2252 17.4019L29.5161 15.8112V23.308L33.2579 25.5051L35.9679 27.0966V19.5999ZM21.1276 36.4939L30.5875 30.9855L35.3162 28.233L28.8716 24.4484L21.4514 28.8057L14.6886 32.7767L21.1276 36.4939Z" fill="white"/>
</g>
<defs>
<clipPath id="clip0_1_2">
<rect width="50" height="52" rx="10" fill="white"/>
</clipPath>
</defs>
</svg>
