<svg width="50" height="52" viewBox="0 0 50 52" fill="none" xmlns="http://www.w3.org/2000/svg">
<g clip-path="url(#clip0_7_2)">
<rect width="50" height="52" rx="10" fill="#00678C"/>
<path fill-rule="evenodd" clip-rule="evenodd" d="M39.3964 34.9773C37.6013 34.9292 36.2087 35.1063 35.0414 35.5789C34.7054 35.7089 34.166 35.7089 34.1217 36.1161C34.3014 36.2869 34.323 36.5666 34.4805 36.8034C34.7496 37.2332 35.2216 37.8122 35.6477 38.1125L37.0841 39.1006C37.9595 39.6156 38.9471 39.9164 39.7999 40.4319C40.2939 40.7327 40.7875 41.1192 41.2815 41.4417C41.5331 41.6135 41.6856 41.8931 42 42V41.935C41.843 41.7425 41.7977 41.4633 41.6413 41.2477L40.9671 40.6254C40.3166 39.7879 39.5081 39.0573 38.6327 38.4566C37.9142 37.984 36.3435 37.34 36.0517 36.5459L36.0074 36.4977C36.5005 36.4496 37.0841 36.2826 37.556 36.1536C38.3197 35.9611 39.015 36.0034 39.7999 35.8104L40.8781 35.5096V35.3171C40.4741 34.9306 40.1823 34.4151 39.7561 34.0503C38.6115 33.1055 37.3537 32.1819 36.0517 31.4089C35.3559 30.9796 34.4578 30.6999 33.7172 30.3356C33.4471 30.2066 32.9988 30.1421 32.8418 29.9274C32.4368 29.4558 32.2129 28.8325 31.9211 28.2737L30.0807 24.5373C29.6767 23.6999 29.4292 22.8624 28.9362 22.0894C26.6239 18.4387 24.1093 16.2271 20.2484 14.0579C19.4183 13.6069 18.4307 13.4129 17.3807 13.1771L15.6972 13.0905C15.3375 12.9403 14.9788 12.5321 14.6643 12.3387C13.3849 11.5657 10.085 9.89075 9.14167 12.098C8.53542 13.4938 10.0397 14.8679 10.5504 15.5769C10.9328 16.0707 11.4258 16.629 11.696 17.1873C11.8469 17.5522 11.8972 17.9391 12.0547 18.3256C12.4134 19.2704 12.7505 20.323 13.2219 21.2038C13.4735 21.6548 13.7376 22.1279 14.0521 22.5356C14.2317 22.7762 14.5461 22.8792 14.613 23.2657C14.2986 23.6955 14.277 24.339 14.0973 24.8766C13.2888 27.3034 13.6033 30.3096 14.7479 32.0962C15.1076 32.6329 15.9553 33.8145 17.1055 33.363C18.1157 32.9765 17.8903 31.7526 18.1821 30.6788C18.25 30.4213 18.2048 30.2494 18.3391 30.0771V30.1253L19.2598 31.9075C19.9556 32.9597 21.1681 34.0551 22.1778 34.7857C22.7162 35.1722 23.1428 35.8383 23.816 36.0742V36.0092H23.7717C23.6369 35.8167 23.4346 35.7301 23.255 35.5799C22.851 35.1934 22.4022 34.7208 22.0878 34.2914C21.1455 33.0891 20.3153 31.7574 19.5742 30.3832C19.2145 29.7176 18.9001 28.9875 18.6093 28.3218C18.4734 28.0638 18.4734 27.6769 18.2495 27.5488C17.9124 28.0205 17.4194 28.4296 17.1714 29.0091C16.7447 29.9323 16.7004 31.0705 16.5435 32.2517C16.4529 32.2733 16.4932 32.2517 16.4529 32.2998C15.7355 32.1284 15.4879 31.419 15.2188 30.8183C14.5456 29.2936 14.4329 26.8457 15.0165 25.0846C15.1735 24.6336 15.8477 23.2161 15.5785 22.7868C15.4427 22.3787 14.9949 22.1428 14.7474 21.8204C14.4556 21.4122 14.1421 20.8972 13.9399 20.4462C13.4015 19.243 13.1324 17.9122 12.5483 16.7094C12.2781 16.1511 11.8072 15.5711 11.4253 15.0561C10.9987 14.4761 10.5283 14.068 10.1912 13.3812C10.079 13.1405 9.922 12.7584 10.1016 12.5004C10.1459 12.3286 10.2364 12.2597 10.4151 12.2212C10.7069 11.9806 11.538 12.2857 11.8298 12.4137C12.6599 12.7362 13.3557 13.0366 14.0516 13.4871C14.366 13.7017 14.7031 14.1099 15.1071 14.2177H15.579C16.2974 14.3678 17.105 14.2658 17.7776 14.4583C18.9675 14.8241 20.0446 15.3603 21.0106 15.9407C23.9508 17.723 26.3758 20.2571 28.014 23.2854C28.2831 23.7793 28.3953 24.2302 28.6428 24.7457C29.1148 25.7983 29.6984 26.8716 30.1688 27.9031C30.6407 28.9124 31.0895 29.9438 31.7627 30.7813C32.0997 31.2323 33.4461 31.4681 34.0518 31.7044C34.5011 31.8969 35.1964 32.0702 35.6014 32.3061C36.3641 32.757 37.1273 33.2725 37.8453 33.7663C38.204 34.0233 39.327 34.5605 39.3939 34.9888L39.3964 34.9773ZM16.5047 16.3162C16.1946 16.3135 15.8854 16.3496 15.585 16.4235V16.4716H15.6293C15.8089 16.8153 16.1234 17.0516 16.3478 17.3524L16.8645 18.3834L16.9087 18.3352C17.2232 18.1206 17.3807 17.7769 17.3807 17.2619C17.2458 17.1118 17.2237 16.9611 17.1115 16.8109C16.9767 16.5963 16.6849 16.4885 16.5047 16.3171V16.3162Z" fill="#C8A345"/>
</g>
<defs>
<clipPath id="clip0_7_2">
<rect width="50" height="52" fill="white"/>
</clipPath>
</defs>
</svg>
