<svg width="50" height="52" viewBox="0 0 50 52" fill="none" xmlns="http://www.w3.org/2000/svg">
<g clip-path="url(#clip0_2_19)">
<rect width="50" height="52" rx="10" fill="#5FA04E"/>
<mask id="mask0_2_19" style="mask-type:luminance" maskUnits="userSpaceOnUse" x="-191" y="-16" width="245" height="64">
<path d="M54 -16H-191V47.9636H54V-16Z" fill="white"/>
</mask>
<g mask="url(#mask0_2_19)">
<mask id="mask1_2_19" style="mask-type:luminance" maskUnits="userSpaceOnUse" x="2" y="3" width="44" height="47">
<path d="M45.9269 3.96364H2.71188V49.9636H45.9269V3.96364Z" fill="white"/>
</mask>
<g mask="url(#mask1_2_19)">
<path d="M24.8108 44.9636C24.1855 44.9636 23.6018 44.824 23.0598 44.5796L17.5155 41.8217C16.6819 41.4376 17.0987 41.298 17.3489 41.2282C18.4745 40.9139 18.6827 40.8441 19.8499 40.2856C19.975 40.2158 20.1419 40.2508 20.267 40.3206L24.519 42.4501C24.6857 42.5199 24.894 42.5199 25.0191 42.4501L41.6525 34.3857C41.8181 34.3159 41.903 34.1762 41.903 34.0018V17.908C41.903 17.7335 41.8181 17.5939 41.6525 17.5241L25.0191 9.49466C24.8524 9.42484 24.6439 9.42484 24.519 9.49466L7.88607 17.5241C7.71917 17.5939 7.63594 17.7683 7.63594 17.908V34.0018C7.63594 34.1414 7.71917 34.3159 7.88607 34.3857L12.4299 36.5852C14.8894 37.6324 16.4318 36.4105 16.4318 35.1886V19.3045C16.4318 19.095 16.6401 18.8856 16.932 18.8856H19.0579C19.3081 18.8856 19.5582 19.06 19.5582 19.3045V35.1886C19.5582 37.9467 17.7657 39.5524 14.6392 39.5524C13.6805 39.5524 12.9301 39.5524 10.804 38.6798L6.4269 36.5852C5.34313 36.0614 4.67621 35.084 4.67621 34.0366V17.943C4.67621 16.8955 5.34313 15.9181 6.4269 15.3944L23.0598 7.33017C24.102 6.84146 25.5194 6.84146 26.5615 7.33017L43.1951 15.3944C44.278 15.9181 44.9447 16.8955 44.9447 17.943V34.0366C44.9447 35.084 44.278 36.0614 43.1951 36.5852L26.5615 44.6494C26.0612 44.824 25.4361 44.9636 24.8108 44.9636Z" fill="white"/>
<path d="M29.8576 35.632C22.4665 35.632 20.9464 32.6469 20.9464 30.1095C20.9464 29.8856 21.1574 29.6617 21.453 29.6617H23.6489C23.9023 29.6617 24.1135 29.811 24.1135 30.0348C24.4512 32.0125 25.4226 32.9828 29.8995 32.9828C33.4465 32.9828 34.9672 32.2737 34.9672 30.5946C34.9672 29.6245 34.5435 28.9155 29.012 28.4303C24.4091 28.0198 21.5375 27.1243 21.5375 23.8778C21.5375 20.8555 24.4091 19.0643 29.2232 19.0643C34.6295 19.0643 37.2892 20.7062 37.6269 24.2884C37.6269 24.4004 37.585 24.5122 37.5011 24.6243C37.415 24.6989 37.2892 24.7735 37.1612 24.7735H34.9231C34.7134 24.7735 34.5015 24.6243 34.4596 24.4376C33.9519 22.3854 32.6431 21.7137 29.1811 21.7137C25.2959 21.7137 24.8313 22.9077 24.8313 23.8032C24.8313 24.8854 25.3802 25.2213 30.6168 25.8183C35.8104 26.4153 38.2604 27.2735 38.2604 30.4826C38.2604 33.7662 35.1769 35.632 29.8576 35.632Z" fill="white"/>
</g>
</g>
</g>
<defs>
<clipPath id="clip0_2_19">
<rect width="50" height="52" fill="white"/>
</clipPath>
</defs>
</svg>
