<svg width="50" height="52" viewBox="0 0 50 52" fill="none" xmlns="http://www.w3.org/2000/svg">
<g clip-path="url(#clip0_2_33)">
<rect width="50" height="52" rx="10" fill="#FF6C37"/>
<path d="M41.7325 27.8493C42.9177 18.1992 36.3649 9.37673 27.1028 8.14405C17.8408 6.91137 9.32378 13.7263 8.13851 23.3589C6.95324 32.9914 13.5061 41.8315 22.7681 43.0818C32.0471 44.3144 40.5303 37.4995 41.7325 27.8493Z" fill="white"/>
<path d="M31.0481 19.3086L23.9026 26.7399L21.8876 24.6444C28.9146 17.3363 29.6088 17.9703 31.0481 19.3086Z" fill="#FF6C37"/>
<path d="M23.9026 26.916C23.8518 26.916 23.8179 26.8984 23.784 26.8632L21.7522 24.7676C21.6844 24.6972 21.6844 24.5915 21.7522 24.5211C28.8976 17.0898 29.6427 17.7942 31.1497 19.203C31.1835 19.2382 31.2005 19.2734 31.2005 19.3262C31.2005 19.379 31.1835 19.4143 31.1497 19.4495L24.0042 26.8632C23.9872 26.8984 23.9364 26.916 23.9026 26.916ZM22.1247 24.6444L23.9026 26.4934L30.7941 19.3262C29.5411 18.164 28.6945 17.8118 22.1247 24.6444Z" fill="white"/>
<path d="M25.9514 28.8707L24.0042 26.8456L31.1497 19.4143C33.063 21.4218 30.2015 24.6796 25.9514 28.8707Z" fill="#FF6C37"/>
<path d="M25.9514 29.0468C25.9006 29.0468 25.8667 29.0292 25.8329 28.994L23.8856 26.9688C23.8518 26.9336 23.8518 26.8984 23.8518 26.8456C23.8518 26.7928 23.8687 26.7575 23.9026 26.7223L31.0481 19.291C31.1158 19.2206 31.2174 19.2206 31.2851 19.291C31.7254 19.7136 31.9624 20.3124 31.9455 20.9287C31.9116 22.8834 29.7781 25.3664 26.0869 28.994C26.0361 29.0292 25.9853 29.0468 25.9514 29.0468ZM24.2412 26.8456C25.3249 27.9902 25.7821 28.4481 25.9514 28.6242C28.796 25.8066 31.556 22.9186 31.573 20.9287C31.5899 20.4709 31.4206 20.013 31.1327 19.6608L24.2412 26.8456Z" fill="white"/>
<path d="M21.9215 24.6972L23.3607 26.194C23.3946 26.2292 23.3946 26.2645 23.3607 26.2997C23.3438 26.3173 23.3438 26.3173 23.3269 26.3173L20.3468 26.9865C20.1944 27.0041 20.0589 26.8984 20.025 26.7399C20.0081 26.6519 20.042 26.5638 20.0928 26.511L21.8199 24.7148C21.8537 24.6796 21.9045 24.662 21.9215 24.6972Z" fill="#FF6C37"/>
<path d="M20.296 27.1626C20.042 27.1626 19.8557 26.9512 19.8557 26.6871C19.8557 26.5638 19.9065 26.4406 19.9912 26.3525L21.7183 24.5563C21.8199 24.4683 21.9553 24.4683 22.0569 24.5563L23.4962 26.0531C23.5978 26.1412 23.5978 26.2997 23.4962 26.4053C23.4623 26.4406 23.4285 26.4582 23.3777 26.4758L20.3976 27.1449C20.3637 27.1449 20.3298 27.1626 20.296 27.1626ZM21.8707 24.8909L20.2113 26.6167C20.1774 26.6519 20.1605 26.7047 20.1944 26.7575C20.2113 26.8104 20.2621 26.828 20.3129 26.8104L23.1067 26.1764L21.8707 24.8909Z" fill="white"/>
<path d="M34.824 15.1879C33.7403 14.0961 31.9963 14.1313 30.9465 15.276C29.8967 16.4206 29.9305 18.2168 31.0311 19.3086C31.9286 20.2067 33.2832 20.3652 34.3499 19.696L32.4196 17.6885L34.824 15.1879Z" fill="#FF6C37"/>
<path d="M32.9276 20.2772C31.319 20.2772 30.0152 18.9212 30.0152 17.2483C30.0152 15.5754 31.319 14.2194 32.9276 14.2194C33.6726 14.2194 34.4007 14.5188 34.9425 15.0647C34.9764 15.0999 34.9933 15.1351 34.9933 15.1879C34.9933 15.2408 34.9764 15.276 34.9425 15.3112L32.6567 17.6885L34.4515 19.5552C34.5192 19.6256 34.5192 19.7313 34.4515 19.8017C34.4346 19.8193 34.4346 19.8193 34.4176 19.8369C33.9774 20.1187 33.4525 20.2772 32.9276 20.2772ZM32.9276 14.5892C31.5053 14.5892 30.3538 15.7867 30.3708 17.2659C30.3708 18.7451 31.5222 19.9426 32.9445 19.925C33.334 19.925 33.7234 19.8369 34.079 19.6432L32.3011 17.8118C32.2672 17.7766 32.2503 17.7414 32.2503 17.6885C32.2503 17.6357 32.2672 17.6005 32.3011 17.5653L34.57 15.2056C34.1128 14.8005 33.5371 14.5892 32.9276 14.5892Z" fill="white"/>
<path d="M34.8748 15.2408L34.841 15.2056L32.4196 17.6885L34.333 19.6784C34.5192 19.5552 34.7055 19.4143 34.8579 19.2558C35.9416 18.1464 35.9416 16.3502 34.8748 15.2408Z" fill="#FF6C37"/>
<path d="M34.3499 19.8721C34.2991 19.8721 34.2652 19.8545 34.2314 19.8193L32.3011 17.8118C32.2672 17.7766 32.2503 17.7413 32.2503 17.6885C32.2503 17.6357 32.2672 17.6005 32.3011 17.5653L34.7055 15.0647C34.7732 14.9942 34.8748 14.9942 34.9425 15.0647L34.9933 15.0999C36.1278 16.2797 36.1278 18.1816 35.0103 19.3791C34.8409 19.5552 34.6547 19.7136 34.4515 19.8369C34.4007 19.8545 34.3668 19.8721 34.3499 19.8721ZM32.6567 17.6885L34.3668 19.4671C34.5023 19.3791 34.6377 19.2558 34.7393 19.1501C35.7045 18.1464 35.7553 16.5087 34.824 15.4521L32.6567 17.6885Z" fill="white"/>
<path d="M31.3359 19.6256C30.9295 19.203 30.2692 19.203 29.8628 19.6256L23.4793 26.2645L24.546 27.3739L31.3021 21.2105C31.7423 20.8231 31.7762 20.1363 31.4037 19.6784C31.3698 19.6608 31.3529 19.6432 31.3359 19.6256Z" fill="#FF6C37"/>
<path d="M24.5291 27.55C24.4783 27.55 24.4444 27.5324 24.4106 27.4971L23.3438 26.3877C23.2761 26.3173 23.2761 26.2116 23.3438 26.1412L29.7274 19.5023C30.2015 19.0093 30.9634 19.0093 31.4375 19.5023C31.9116 19.9954 31.9116 20.7878 31.4375 21.2809C31.4206 21.2985 31.4037 21.3161 31.3867 21.3337L24.6307 27.4971C24.6138 27.5324 24.5799 27.55 24.5291 27.55ZM23.7163 26.2645L24.546 27.1273L31.1835 21.0696C31.5561 20.7526 31.5899 20.1715 31.2851 19.7841C30.9804 19.3967 30.4216 19.3614 30.0491 19.6784C30.0321 19.696 30.0152 19.7136 29.9813 19.7313L23.7163 26.2645Z" fill="white"/>
<path d="M18.5858 33.819C18.5181 33.8543 18.4842 33.9247 18.5012 33.9951L18.789 35.263C18.8567 35.4391 18.7551 35.6504 18.5689 35.7033C18.4334 35.7561 18.281 35.7033 18.1964 35.5976L16.3338 33.6782L22.4125 27.3563L24.5122 27.3915L25.9345 28.8707C25.5958 29.1701 23.547 31.2304 18.5858 33.819Z" fill="#FF6C37"/>
<path d="M18.4503 35.8794C18.3149 35.8794 18.1794 35.8265 18.0947 35.7209L16.2491 33.8014C16.2152 33.7662 16.1983 33.731 16.1983 33.6782C16.1983 33.6253 16.2152 33.5901 16.2491 33.5549L22.3278 27.233C22.3617 27.1978 22.4125 27.1802 22.4464 27.1802L24.546 27.2154C24.5968 27.2154 24.6307 27.233 24.6645 27.2682L26.0868 28.7474C26.1207 28.7826 26.1376 28.8355 26.1376 28.8883C26.1376 28.9411 26.1207 28.9764 26.0699 29.0116L25.9514 29.1172C24.1565 30.7549 21.7183 32.3926 18.6874 33.9599L18.9752 35.2102C19.026 35.4391 18.9244 35.6857 18.7212 35.8089C18.6196 35.8618 18.535 35.8794 18.4503 35.8794ZM16.5877 33.6782L18.3318 35.4743C18.3826 35.5624 18.4842 35.5976 18.5688 35.5448C18.6535 35.492 18.6874 35.3863 18.6366 35.2982L18.3487 34.0303C18.3149 33.8719 18.3826 33.731 18.518 33.6605C21.5151 32.0933 23.9364 30.4732 25.7143 28.8707L24.4613 27.5676L22.5141 27.5324L16.5877 33.6782Z" fill="white"/>
<path d="M14.8945 35.1926L16.3507 33.6782L18.5181 35.9322L15.0638 35.6857C14.9115 35.6681 14.8099 35.5272 14.8268 35.3687C14.8268 35.2983 14.8437 35.2278 14.8945 35.1926Z" fill="#FF6C37"/>
<path d="M18.5181 36.0907L15.0469 35.8442C14.7929 35.8265 14.6236 35.5976 14.6405 35.3335C14.6575 35.2278 14.6913 35.1222 14.776 35.0517L16.2322 33.5373C16.2999 33.4668 16.4015 33.4668 16.4692 33.5373L18.6366 35.7913C18.6874 35.8442 18.7043 35.9146 18.6705 35.985C18.6366 36.0555 18.5858 36.0907 18.5181 36.0907ZM16.3507 33.9247L15.0131 35.3159C14.9623 35.3511 14.9623 35.4391 15.0131 35.4744C15.03 35.492 15.0469 35.5096 15.0808 35.5096L18.0778 35.7209L16.3507 33.9247Z" fill="white"/>
<path d="M21.8199 28.1663C21.7183 28.1663 21.6505 28.0783 21.6505 27.9902C21.6505 27.9374 21.6675 27.9022 21.7013 27.8669L23.3438 26.1588C23.4115 26.0884 23.5131 26.0884 23.5808 26.1588L24.6476 27.2682C24.6984 27.321 24.7153 27.3739 24.6984 27.4443C24.6814 27.4971 24.6307 27.55 24.5629 27.5676L21.8537 28.1663C21.8368 28.1663 21.8199 28.1663 21.8199 28.1663ZM23.4623 26.5286L22.3448 27.6908L24.1735 27.2858L23.4623 26.5286Z" fill="white"/>
<path d="M24.5121 27.3915L22.6496 27.8141C22.5141 27.8493 22.3787 27.7613 22.3448 27.6204C22.3279 27.5324 22.3448 27.4443 22.4125 27.3739L23.4454 26.2997L24.5121 27.3915Z" fill="#FF6C37"/>
<path d="M22.6157 27.9902C22.3787 27.9902 22.1924 27.7965 22.1924 27.55C22.1924 27.4267 22.2432 27.321 22.3109 27.233L23.3438 26.1588C23.4115 26.0884 23.5131 26.0884 23.5809 26.1588L24.6476 27.2682C24.6984 27.321 24.7153 27.3739 24.6984 27.4443C24.6815 27.4971 24.6307 27.55 24.563 27.5676L22.7004 27.9902C22.6665 27.9902 22.6327 27.9902 22.6157 27.9902ZM23.4623 26.5286L22.548 27.4795C22.5141 27.5148 22.5141 27.55 22.5311 27.5852C22.548 27.6204 22.5819 27.638 22.6327 27.638L24.1904 27.2858L23.4623 26.5286Z" fill="white"/>
<path d="M34.8917 16.9313C34.8579 16.8256 34.7393 16.7728 34.6377 16.808C34.5361 16.8433 34.4853 16.9665 34.5192 17.0722C34.5192 17.0898 34.5361 17.1074 34.5361 17.125C34.6377 17.3363 34.6039 17.6005 34.4684 17.7942C34.4007 17.8822 34.4176 18.0055 34.4853 18.0759C34.57 18.1464 34.6885 18.1288 34.7563 18.0407C35.0102 17.7061 35.061 17.2835 34.8917 16.9313Z" fill="white"/>
</g>
<defs>
<clipPath id="clip0_2_33">
<rect width="50" height="52" fill="white"/>
</clipPath>
</defs>
</svg>
