<svg width="50" height="52" viewBox="0 0 50 52" fill="none" xmlns="http://www.w3.org/2000/svg">
<g clip-path="url(#clip0_1_11)">
<rect width="50" height="52" rx="10" fill="#61DAFB"/>
<path d="M25 33.225C34.9411 33.225 43 29.9903 43 26C43 22.0097 34.9411 18.775 25 18.775C15.0589 18.775 7 22.0097 7 26C7 29.9903 15.0589 33.225 25 33.225Z" stroke="white"/>
<path d="M19.048 29.6125C24.0186 38.6631 30.7128 44.3826 34 42.3875C37.2872 40.3923 35.9225 31.438 30.9519 22.3875C25.9814 13.3369 19.2872 7.61737 16 9.6125C12.7128 11.6076 14.0775 20.5619 19.048 29.6125Z" stroke="white"/>
<path d="M19.048 22.3875C14.0775 31.4381 12.7128 40.3924 16 42.3875C19.2872 44.3826 25.9814 38.6631 30.9519 29.6125C35.9225 20.5619 37.2872 11.6076 34 9.61252C30.7128 7.61739 24.0186 13.3369 19.048 22.3875Z" stroke="white"/>
<path d="M24.5909 30.0735C26.4436 30.0735 27.9455 28.2794 27.9455 26.0664C27.9455 23.8533 26.4436 22.0592 24.5909 22.0592C22.7382 22.0592 21.2364 23.8533 21.2364 26.0664C21.2364 28.2794 22.7382 30.0735 24.5909 30.0735Z" fill="white"/>
</g>
<defs>
<clipPath id="clip0_1_11">
<rect width="50" height="52" fill="white"/>
</clipPath>
</defs>
</svg>
