<svg width="21" height="18" viewBox="0 0 21 18" fill="none" xmlns="http://www.w3.org/2000/svg">
<path d="M14.35 2.54999C13.5901 2.54986 12.8606 2.84797 12.3182 3.3802C11.7759 3.91243 11.4641 4.63626 11.45 5.39599L11.422 6.97099C11.4205 7.05564 11.4011 7.13901 11.3651 7.21563C11.329 7.29225 11.2772 7.36038 11.213 7.41554C11.1488 7.4707 11.0736 7.51164 10.9924 7.53568C10.9112 7.55971 10.8259 7.56629 10.742 7.55499L9.17998 7.34199C7.12698 7.06199 5.15898 6.11699 3.26998 4.54399C2.67298 7.85399 3.83998 10.147 6.65298 11.916L8.39998 13.014C8.48285 13.0661 8.5517 13.1377 8.60054 13.2226C8.64937 13.3074 8.67671 13.4029 8.68016 13.5007C8.68361 13.5986 8.66307 13.6957 8.62034 13.7838C8.5776 13.8719 8.51397 13.9482 8.43498 14.006L6.84298 15.17C7.78998 15.23 8.68898 15.188 9.43498 15.04C14.153 14.098 17.29 10.548 17.29 4.69199C17.29 4.21399 16.277 2.54999 14.35 2.54999ZM9.44998 5.35999C9.46744 4.39604 9.76887 3.45866 10.3165 2.66521C10.8642 1.87177 11.6338 1.25751 12.5289 0.899359C13.424 0.541207 14.4049 0.455072 15.3487 0.65174C16.2926 0.848407 17.1574 1.31914 17.835 2.00499C18.546 1.99999 19.151 2.17999 20.503 1.35899C20.169 2.99899 20.003 3.71199 19.29 4.69099C19.29 12.332 14.593 16.049 9.82598 17C6.55898 17.652 1.80598 16.581 0.445984 15.158C1.13898 15.105 3.95898 14.802 5.58898 13.608C4.20898 12.698 -1.27902 9.46799 2.32798 0.785992C4.02098 2.76299 5.73798 4.10799 7.47798 4.82299C8.63498 5.29799 8.91998 5.28799 9.45098 5.36099L9.44998 5.35999Z" fill="white"/>
</svg>
