<svg width="75" height="63" viewBox="0 0 75 63" fill="none" xmlns="http://www.w3.org/2000/svg">
<path d="M31.888 47.92C32.656 48.624 33.424 49.296 34.192 49.936C34.96 50.512 35.632 51.088 36.208 51.664C36.592 51.984 37.104 52.432 37.744 53.008C38.384 53.52 38.96 53.872 39.472 54.064C39.792 54.384 40.144 54.672 40.528 54.928C40.976 55.184 41.328 55.44 41.584 55.696C41.904 56.016 42.224 56.336 42.544 56.656C42.864 56.912 43.12 57.232 43.312 57.616C43.248 57.744 43.184 57.904 43.12 58.096C42.992 58.416 42.832 58.672 42.64 58.864C42.128 59.376 41.712 59.856 41.392 60.304C41.072 60.816 40.752 61.232 40.432 61.552L39.664 62.32C39.536 62.448 39.472 62.544 39.472 62.608C39.152 62.608 38.864 62.48 38.608 62.224C38.352 61.968 38.064 61.712 37.744 61.456C36.912 60.944 36.336 60.528 36.016 60.208C35.76 59.952 35.216 59.696 34.384 59.44C34.192 59.312 33.84 59.12 33.328 58.864C32.88 58.608 32.56 58.416 32.368 58.288C31.536 58.032 30.736 57.616 29.968 57.04C29.2 56.464 28.368 55.92 27.472 55.408L19.984 50.512C19.344 50.192 18.736 49.84 18.16 49.456C17.648 49.072 17.072 48.72 16.432 48.4C15.984 48.144 15.6 47.92 15.28 47.728C15.024 47.472 14.704 47.184 14.32 46.864C13.808 46.544 13.264 46.224 12.688 45.904C12.112 45.584 11.568 45.328 11.056 45.136L10.288 44.752V45.328C10.288 45.84 10.224 46.32 10.096 46.768C10.032 47.216 10 47.6 10 47.92C9.936 49.584 9.84 51.248 9.712 52.912C9.584 54.512 9.52 56.144 9.52 57.808C9.52 58.32 9.488 58.832 9.424 59.344C9.424 59.856 9.264 60.368 8.944 60.88H8.464C7.696 60.88 7.056 60.848 6.544 60.784C6.032 60.784 5.424 60.816 4.72 60.88C4.208 60.944 3.76 60.944 3.376 60.88C2.992 60.88 2.544 60.88 2.032 60.88C1.968 60.688 1.872 60.528 1.744 60.4C1.616 60.272 1.552 60.112 1.552 59.92C1.68 58.768 1.648 56.976 1.456 54.544C1.328 52.112 1.264 49.36 1.264 46.288C1.264 45.456 1.264 44.656 1.264 43.888C1.328 43.12 1.328 42.32 1.264 41.488C1.136 40.464 1.072 39.44 1.072 38.416C1.072 37.392 1.104 36.336 1.168 35.248V32.56C1.168 31.6 1.136 30.64 1.072 29.68C1.008 28.656 0.976 27.632 0.976 26.608C0.976 26.096 0.976 25.584 0.976 25.072C1.04 24.56 1.104 24.048 1.168 23.536C1.168 23.024 1.104 22.48 0.976 21.904C0.912 21.328 0.944 20.784 1.072 20.272C1.072 20.08 1.072 19.504 1.072 18.544C1.136 17.584 1.168 16.528 1.168 15.376C1.168 14.224 1.136 13.104 1.072 12.016C1.072 10.864 1.072 10 1.072 9.424L0.88 4.528C1.2 4.208 1.392 4.048 1.456 4.048C1.584 3.984 1.808 3.952 2.128 3.952C2.256 3.952 2.352 3.984 2.416 4.048C2.48 4.048 2.544 4.048 2.608 4.048C2.672 4.048 3.024 4.08 3.664 4.144C4.304 4.144 5.008 4.176 5.776 4.24C6.544 4.24 7.248 4.272 7.888 4.336C8.592 4.336 8.976 4.368 9.04 4.432C9.104 4.944 9.136 5.36 9.136 5.68C9.136 6 9.104 6.32 9.04 6.64C9.04 6.96 9.008 7.344 8.944 7.792C8.944 8.176 8.944 8.688 8.944 9.328V11.152C8.688 12.944 8.528 14.768 8.464 16.624C8.464 18.416 8.464 20.176 8.464 21.904C8.4 23.824 8.304 25.232 8.176 26.128C8.112 26.96 8.08 27.952 8.08 29.104V31.12C8.08 31.44 8.048 31.696 7.984 31.888C7.984 32.08 8.144 32.176 8.464 32.176L8.944 31.696C9.264 31.376 9.584 31.024 9.904 30.64C10.224 30.192 10.512 29.84 10.768 29.584C10.832 29.456 11.024 29.232 11.344 28.912C11.664 28.528 11.888 28.272 12.016 28.144C12.72 26.992 13.328 26.16 13.84 25.648C14.416 25.136 14.96 24.432 15.472 23.536C15.856 22.96 16.208 22.384 16.528 21.808C16.912 21.232 17.36 20.688 17.872 20.176C17.872 20.176 17.936 20.112 18.064 19.984C18.384 19.28 18.768 18.64 19.216 18.064C19.664 17.424 20.112 16.752 20.56 16.048C21.072 15.344 21.552 14.608 22 13.84C22.512 13.072 23.024 12.336 23.536 11.632L29.2 3.27999L30.352 1.552C30.48 1.36 30.672 1.136 30.928 0.879997C31.248 0.623997 31.504 0.431997 31.696 0.303999C31.952 0.495996 32.336 0.751995 32.848 1.07199C33.36 1.392 33.968 1.808 34.672 2.32C35.184 2.64 35.664 2.992 36.112 3.376C36.624 3.696 37.04 4.24 37.36 5.008C37.36 5.2 37.136 5.648 36.688 6.352C36.24 7.056 35.76 7.824 35.248 8.656C34.736 9.424 34.256 10.16 33.808 10.864C33.36 11.504 33.104 11.888 33.04 12.016C32.656 12.656 32.304 13.328 31.984 14.032C31.728 14.672 31.44 15.152 31.12 15.472C30.608 16.112 30.128 16.816 29.68 17.584C29.296 18.288 28.88 18.992 28.432 19.696C27.728 20.784 26.96 21.808 26.128 22.768C25.36 23.728 24.592 24.688 23.824 25.648C23.12 26.608 22.416 27.536 21.712 28.432C21.008 29.328 20.56 29.84 20.368 29.968C19.92 30.48 19.472 30.96 19.024 31.408C18.576 31.792 18.128 32.208 17.68 32.656C17.232 33.104 16.848 33.584 16.528 34.096C16.208 34.544 15.888 34.96 15.568 35.344C15.824 35.536 15.984 35.728 16.048 35.92C16.176 36.112 16.4 36.304 16.72 36.496C17.488 37.008 18.288 37.648 19.12 38.416C19.952 39.184 20.752 39.824 21.52 40.336C22.608 40.912 23.6 41.584 24.496 42.352C25.392 43.056 26.384 43.856 27.472 44.752C27.728 45.072 28.112 45.36 28.624 45.616C29.2 45.872 29.744 46.288 30.256 46.864C30.512 47.12 30.768 47.344 31.024 47.536C31.344 47.664 31.632 47.792 31.888 47.92ZM48.3333 45.712C48.3333 45.264 48.3333 44.592 48.3333 43.696C48.3973 42.8 48.3973 41.936 48.3333 41.104C48.3973 40.528 48.4293 39.952 48.4293 39.376C48.4293 38.8 48.4293 38.192 48.4293 37.552L48.1413 29.776V25.456C48.8453 25.456 49.5813 25.456 50.3493 25.456C51.1173 25.392 51.9813 25.424 52.9413 25.552C53.1973 25.616 53.4533 25.648 53.7093 25.648H55.0533C55.5013 25.776 55.7253 25.84 55.7253 25.84C55.7253 25.776 55.8213 25.808 56.0133 25.936C56.0133 26.256 55.9813 26.512 55.9173 26.704C55.8533 26.832 55.8213 27.056 55.8213 27.376V30.448C56.0773 30.128 56.2373 29.872 56.3013 29.68C56.4293 29.424 56.6533 29.136 56.9733 28.816L57.5493 28.624C58.3813 27.792 59.4053 27.248 60.6213 26.992C61.8373 26.736 63.0533 26.672 64.2693 26.8C64.5253 26.8 64.9413 26.928 65.5173 27.184C66.0933 27.376 66.6693 27.632 67.2453 27.952C67.6933 28.016 68.0773 28.144 68.3973 28.336L68.6853 28.624C69.3253 29.2 69.9333 29.712 70.5093 30.16C71.0853 30.544 71.5013 31.056 71.7573 31.696C72.3973 32.592 72.9093 33.552 73.2933 34.576C73.6773 35.6 74.0293 36.72 74.3493 37.936C74.3493 38.256 74.3173 38.544 74.2533 38.8C74.1893 39.056 73.9973 39.184 73.6773 39.184C72.7173 39.504 71.8213 39.664 70.9893 39.664C70.2213 39.6 69.1653 39.632 67.8213 39.76H66.7653C66.6373 39.696 66.5413 39.6 66.4773 39.472C66.4773 39.344 66.4773 39.248 66.4773 39.184C66.4133 38.8 66.3173 38.48 66.1893 38.224C66.1253 37.904 66.0933 37.648 66.0933 37.456C66.0933 37.328 66.0613 37.168 65.9973 36.976C65.9333 36.784 65.8693 36.624 65.8053 36.496C65.6773 36.304 65.5813 36.144 65.5173 36.016C64.3013 34.8 63.1173 34.192 61.9653 34.192C61.8373 34.192 61.6453 34.192 61.3893 34.192C61.1973 34.192 61.0053 34.256 60.8133 34.384C60.4933 34.512 60.0133 34.736 59.3733 35.056C58.7973 35.312 58.4133 35.536 58.2213 35.728C57.9013 36.048 57.5493 36.4 57.1653 36.784C56.8453 37.104 56.5893 37.488 56.3973 37.936C56.3333 38.192 56.2693 38.64 56.2053 39.28C56.2053 39.856 56.2053 40.208 56.2053 40.336C56.0773 40.912 55.9493 41.68 55.8213 42.64C55.6933 43.6 55.6293 44.432 55.6293 45.136C55.6293 45.584 55.5653 46.16 55.4373 46.864C55.3733 47.568 55.3413 48.208 55.3413 48.784C55.3413 49.232 55.3093 49.648 55.2453 50.032C55.2453 50.416 55.2453 50.8 55.2453 51.184V54.832C55.2453 55.216 55.2133 55.632 55.1493 56.08C55.1493 56.528 55.1493 56.976 55.1493 57.424V59.536C51.9493 60.24 49.7413 60.24 48.5253 59.536C48.3973 59.088 48.3013 58.544 48.2373 57.904C48.1733 57.2 48.1733 56.784 48.2373 56.656C48.3653 55.504 48.3973 54.352 48.3333 53.2C48.2693 52.048 48.2373 50.864 48.2373 49.648C48.1733 49.008 48.1733 48.336 48.2373 47.632C48.3013 46.928 48.3333 46.288 48.3333 45.712Z" fill="white"/>
</svg>
